<svg width="24" height="25" viewBox="0 0 24 25" fill="none" xmlns="http://www.w3.org/2000/svg">
<g id=" Batch 24px">
<path id="Icon" fill-rule="evenodd" clip-rule="evenodd" d="M11.5935 2.51516C11.8494 2.3872 12.1506 2.3872 12.4065 2.51516L21.4973 7.06062C21.8053 7.21461 21.9998 7.5294 21.9998 7.87373C21.9998 8.21807 21.8053 8.53286 21.4973 8.68685L12.4065 13.2323C12.1506 13.3603 11.8494 13.3603 11.5935 13.2323L2.50272 8.68685C2.19474 8.53286 2.0002 8.21807 2.0002 7.87373C2.0002 7.5294 2.19474 7.21461 2.50272 7.06062L11.5935 2.51516ZM4.94202 7.87373L12 11.4028L19.058 7.87373L12 4.34467L4.94202 7.87373ZM2.09617 12.0126C2.3207 11.5636 2.86676 11.3815 3.31582 11.6061L12 15.9482L20.6842 11.6061C21.1332 11.3815 21.6793 11.5636 21.9038 12.0126C22.1284 12.4617 21.9463 13.0078 21.4973 13.2323L12.4065 17.7778C12.1506 17.9057 11.8494 17.9057 11.5935 17.7778L2.50272 13.2323C2.05366 13.0078 1.87164 12.4617 2.09617 12.0126ZM2.09617 16.5581C2.3207 16.109 2.86676 15.927 3.31582 16.1515L12 20.4937L20.6842 16.1515C21.1332 15.927 21.6793 16.109 21.9038 16.5581C22.1284 17.0072 21.9463 17.5532 21.4973 17.7778L12.4065 22.3232C12.1506 22.4512 11.8494 22.4512 11.5935 22.3232L2.50272 17.7778C2.05366 17.5532 1.87164 17.0072 2.09617 16.5581Z" fill="#99E515"/>
</g>
</svg>
