<svg width="24" height="24" viewBox="0 0 24 24" fill="none" xmlns="http://www.w3.org/2000/svg">
<path d="M3.36633 4.36561C3.85506 3.87813 4.64912 3.87813 5.13785 4.36561L11.5 10.7278L17.8617 4.36601C18.3504 3.87854 19.1449 3.87813 19.6336 4.36561L19.6344 4.36642C20.1219 4.85515 20.1219 5.64921 19.6344 6.13794L13.2721 12.5L19.6339 18.8619C20.1212 19.3504 20.1221 20.1451 19.6339 20.6334C19.1451 21.1222 18.3504 21.1222 17.8616 20.6334L11.5 14.272L5.13833 20.6334C4.64952 21.1222 3.85482 21.1222 3.36601 20.6334C2.87777 20.1451 2.87836 19.3508 3.3656 18.8623L9.72782 12.5L3.36593 6.13835C2.87847 5.64963 2.87805 4.85515 3.36552 4.36642L3.36633 4.36561Z" fill="white"/>
</svg>
