<svg width="24" height="24" viewBox="0 0 24 24" fill="none" xmlns="http://www.w3.org/2000/svg">
<path fill-rule="evenodd" clip-rule="evenodd" d="M6.00098 20.0004V4.00037H11.999V8.02037C11.999 9.10837 12.887 9.99437 13.978 9.99437H18.001V20.0004H6.00098ZM17.176 8.00337L13.999 8.02037V4.83037L17.176 8.00337ZM19.735 7.73337L14.303 2.30737C14.106 2.11037 13.84 2.00037 13.563 2.00037H6.00098C4.89598 2.00037 4.00098 2.89637 4.00098 4.00037V20.0004C4.00098 21.1044 4.89598 22.0004 6.00098 22.0004H18.001C19.105 22.0004 20.001 21.1044 20.001 20.0004V8.37137C20.001 8.13237 19.905 7.90237 19.735 7.73337Z" fill="#99E515"/>
</svg>
