<svg width="24" height="25" viewBox="0 0 24 25" fill="none" xmlns="http://www.w3.org/2000/svg">
<g id="Experimental 24px">
<path id="Icon " fill-rule="evenodd" clip-rule="evenodd" d="M10.5021 1.82195C10.9577 1.55945 11.4742 1.42126 12 1.42126C12.5258 1.42126 13.0424 1.55946 13.4979 1.82198C13.4986 1.82239 13.4993 1.82279 13.5 1.82319L20.5 5.82318C20.87 6.03679 21.1891 6.32636 21.4369 6.67157C21.4973 6.73194 21.5508 6.80109 21.5956 6.87849C21.6342 6.94516 21.6642 7.01443 21.686 7.08502C21.8917 7.49849 21.9995 7.95469 22 8.41819V16.4202C21.9995 16.9463 21.8606 17.463 21.5973 17.9185C21.334 18.374 20.9556 18.7522 20.5 19.0152L20.4961 19.0175L13.5 23.0152C13.4994 23.0156 13.4988 23.0159 13.4982 23.0163C13.181 23.1991 12.8342 23.3217 12.4753 23.3793C12.3339 23.4558 12.172 23.4992 12 23.4992C11.828 23.4992 11.6661 23.4558 11.5247 23.3793C11.1658 23.3217 10.8191 23.1991 10.5019 23.0163C10.5012 23.016 10.5006 23.0156 10.5 23.0152L3.50386 19.0175L3.5 19.0152C3.04439 18.7522 2.66597 18.374 2.40269 17.9185C2.13941 17.463 2.00054 16.9463 2 16.4202V8.41819C2.00048 7.9547 2.10832 7.4985 2.31402 7.08503C2.33581 7.01443 2.36583 6.94516 2.40439 6.87849C2.44917 6.80109 2.50272 6.73194 2.56308 6.67157C2.81094 6.32636 3.13002 6.0368 3.5 5.82319L3.50386 5.82096L6.75258 3.96456C6.90017 3.79825 7.09619 3.68971 7.30633 3.64813L10.5021 1.82195ZM7.54999 5.8124L5.03899 7.24726L12 11.274L14.5065 9.82401L7.54999 5.8124ZM16.5052 8.66785L9.5609 4.66331L11.4961 3.55746L11.5 3.55524C11.652 3.46747 11.8245 3.42126 12 3.42126C12.1755 3.42126 12.348 3.46747 12.5 3.55524L18.961 7.24726L16.5052 8.66785ZM20 8.95675L13 13.006V20.9975L19.5 17.2832C19.5005 17.2829 19.5011 17.2826 19.5016 17.2823C19.6527 17.1946 19.7783 17.0689 19.8658 16.9176C19.9535 16.7658 19.9998 16.5936 20 16.4182V8.95675ZM11 20.9975V13.006L4 8.95675V16.4186C4.00025 16.5938 4.04654 16.7659 4.13423 16.9176C4.22169 17.0689 4.34726 17.1946 4.49842 17.2823C4.49895 17.2826 4.49947 17.2829 4.5 17.2832L11 20.9975Z" fill="#99E515"/>
</g>
</svg>
