<svg width="17" height="16" viewBox="0 0 17 16" fill="none" xmlns="http://www.w3.org/2000/svg">
<path d="M13.3 12.8V8C13.3 7.66863 13.5686 7.4 13.9 7.4C14.2314 7.4 14.5 7.66863 14.5 8V12.8C14.5 13.4627 13.9627 14 13.3 14H3.7C3.03726 14 2.5 13.4627 2.5 12.8V3.2C2.5 2.53726 3.03726 2 3.7 2H8.5C8.83137 2 9.1 2.26863 9.1 2.6C9.1 2.93137 8.83137 3.2 8.5 3.2H3.7V12.8H13.3Z" fill="#99E515"/>
<path fill-rule="evenodd" clip-rule="evenodd" d="M12.3908 3.23555H10.7934C10.4522 3.23555 10.1756 2.95896 10.1756 2.61777C10.1756 2.27659 10.4522 2 10.7934 2H13.8822C14.0528 2 14.2073 2.06915 14.3191 2.18094C14.4309 2.29274 14.5 2.44718 14.5 2.61777V5.70664C14.5 6.04782 14.2234 6.32441 13.8822 6.32441C13.541 6.32441 13.2645 6.04782 13.2645 5.70664V4.10921L7.5546 9.81906C7.31335 10.0603 6.9222 10.0603 6.68094 9.81906C6.43969 9.5778 6.43969 9.18665 6.68094 8.9454L12.3908 3.23555Z" fill="#99E515"/>
</svg>
