<svg width="24" height="24" viewBox="0 0 24 24" fill="none" xmlns="http://www.w3.org/2000/svg">
<path fill-rule="evenodd" clip-rule="evenodd" d="M11.7368 2C12.4635 2 13.0526 2.5891 13.0526 3.31579L13.0526 20.6842C13.0526 21.4109 12.4635 22 11.7368 22C11.0102 22 10.4211 21.4109 10.4211 20.6842L10.4211 3.31579C10.4211 2.5891 11.0102 2 11.7368 2Z" fill="white"/>
<path fill-rule="evenodd" clip-rule="evenodd" d="M22 11.7368C22 12.4635 21.4109 13.0526 20.6842 13.0526L3.31579 13.0526C2.5891 13.0526 2 12.4635 2 11.7368C2 11.0101 2.5891 10.4211 3.31579 10.4211L20.6842 10.4211C21.4109 10.4211 22 11.0102 22 11.7368Z" fill="white"/>
</svg>
