<svg width="24" height="24" viewBox="0 0 24 24" fill="none" xmlns="http://www.w3.org/2000/svg">
<path fill-rule="evenodd" clip-rule="evenodd" d="M22.9577 20.7261C21.4138 15.4337 19.1418 12.2711 15.5285 11.3156C17.0081 10.4473 18.0016 8.8397 18.0016 7.00024C18.0016 4.23896 15.7629 2.00024 13.0016 2.00024C10.2396 2.00024 8.0016 4.23865 8.0016 7.00024C8.0016 8.8488 9.00439 10.4629 10.4959 11.3282C8.79586 11.795 7.35842 12.7645 6.16766 14.2064C5.81597 14.6322 5.87608 15.2625 6.30192 15.6142C6.72776 15.9659 7.35806 15.9058 7.70974 15.4799C9.07127 13.8313 10.7696 13.0061 12.9977 13.0061C17.0436 13.0061 19.3813 15.608 21.0377 21.2862C21.1924 21.8164 21.7476 22.1208 22.2778 21.9661C22.8079 21.8115 23.1124 21.2563 22.9577 20.7261ZM16.0016 7.00024C16.0016 8.65696 14.6583 10.0002 13.0016 10.0002C11.3443 10.0002 10.0016 8.65734 10.0016 7.00024C10.0016 5.34314 11.3443 4.00024 13.0016 4.00024C14.6583 4.00024 16.0016 5.34353 16.0016 7.00024Z" fill="#99E515"/>
<path d="M11.5819 20.0051H3C2.44772 20.0051 2 19.5574 2 19.0051C2 18.4529 2.44772 18.0051 3 18.0051H11.5835L11.3004 17.7221C10.9099 17.3315 10.9099 16.6984 11.3004 16.3078C11.6909 15.9173 12.3241 15.9173 12.7146 16.3078L14.7036 18.2968C15.0941 18.6873 15.0941 19.3203 14.7038 19.7109L12.7148 21.7009C12.3244 22.0915 11.6912 22.0917 11.3006 21.7012C10.9099 21.3108 10.9098 20.6776 11.3002 20.287L11.5819 20.0051Z" fill="#99E515"/>
</svg>
