<svg width="1152" height="80" viewBox="0 0 1152 80" fill="none" xmlns="http://www.w3.org/2000/svg">
<rect x="0.5" y="0.5" width="1151" height="79" rx="15.5" fill="url(#paint0_linear_48_1215)"/>
<rect x="0.5" y="0.5" width="1151" height="79" rx="15.5" stroke="#F4F4F4"/>
<path fill-rule="evenodd" clip-rule="evenodd" d="M46.9577 48.7261C45.4138 43.4337 43.1418 40.2711 39.5285 39.3156C41.0081 38.4473 42.0016 36.8397 42.0016 35.0002C42.0016 32.239 39.7629 30.0002 37.0016 30.0002C34.2396 30.0002 32.0016 32.2387 32.0016 35.0002C32.0016 36.8488 33.0044 38.4629 34.4959 39.3282C32.7959 39.795 31.3584 40.7645 30.1677 42.2064C29.816 42.6322 29.8761 43.2625 30.3019 43.6142C30.7278 43.9659 31.3581 43.9058 31.7097 43.4799C33.0713 41.8313 34.7696 41.0061 36.9977 41.0061C41.0436 41.0061 43.3813 43.608 45.0377 49.2862C45.1924 49.8164 45.7476 50.1208 46.2778 49.9661C46.8079 49.8115 47.1124 49.2563 46.9577 48.7261ZM40.0016 35.0002C40.0016 36.657 38.6583 38.0002 37.0016 38.0002C35.3443 38.0002 34.0016 36.6573 34.0016 35.0002C34.0016 33.3431 35.3443 32.0002 37.0016 32.0002C38.6583 32.0002 40.0016 33.3435 40.0016 35.0002Z" fill="#99E515"/>
<path d="M35.5819 48.0051H27C26.4477 48.0051 26 47.5574 26 47.0051C26 46.4529 26.4477 46.0051 27 46.0051H35.5835L35.3004 45.7221C34.9099 45.3315 34.9099 44.6984 35.3004 44.3078C35.6909 43.9173 36.3241 43.9173 36.7146 44.3078L38.7036 46.2968C39.0941 46.6873 39.0941 47.3203 38.7038 47.7109L36.7148 49.7009C36.3244 50.0915 35.6912 50.0917 35.3006 49.7012C34.9099 49.3108 34.9098 48.6776 35.3002 48.287L35.5819 48.0051Z" fill="#99E515"/>
<path d="M65.632 48V31.2H76.48V33.672H68.704V38.376H74.992V40.8H68.704V48H65.632ZM78.7788 48V36.096H81.5148L81.8028 38.328C82.2348 37.56 82.8188 36.952 83.5547 36.504C84.3068 36.04 85.1868 35.808 86.1948 35.808V39.048H85.3308C84.6588 39.048 84.0588 39.152 83.5308 39.36C83.0028 39.568 82.5868 39.928 82.2828 40.44C81.9948 40.952 81.8508 41.664 81.8508 42.576V48H78.7788ZM92.3984 48.288C91.3744 48.288 90.5344 48.128 89.8784 47.808C89.2224 47.472 88.7344 47.032 88.4144 46.488C88.0944 45.944 87.9344 45.344 87.9344 44.688C87.9344 43.584 88.3664 42.688 89.2304 42C90.0944 41.312 91.3904 40.968 93.1184 40.968H96.1424V40.68C96.1424 39.864 95.9104 39.264 95.4464 38.88C94.9824 38.496 94.4064 38.304 93.7184 38.304C93.0944 38.304 92.5504 38.456 92.0864 38.76C91.6224 39.048 91.3344 39.48 91.2224 40.056H88.2224C88.3024 39.192 88.5904 38.44 89.0864 37.8C89.5984 37.16 90.2544 36.672 91.0544 36.336C91.8544 35.984 92.7504 35.808 93.7424 35.808C95.4384 35.808 96.7744 36.232 97.7504 37.08C98.7264 37.928 99.2144 39.128 99.2144 40.68V48H96.5984L96.3104 46.08C95.9584 46.72 95.4624 47.248 94.8224 47.664C94.1984 48.08 93.3904 48.288 92.3984 48.288ZM93.0944 45.888C93.9744 45.888 94.6544 45.6 95.1344 45.024C95.6304 44.448 95.9424 43.736 96.0704 42.888H93.4544C92.6384 42.888 92.0544 43.04 91.7024 43.344C91.3504 43.632 91.1744 43.992 91.1744 44.424C91.1744 44.888 91.3504 45.248 91.7024 45.504C92.0544 45.76 92.5184 45.888 93.0944 45.888ZM107.978 48.288C106.762 48.288 105.69 48.024 104.762 47.496C103.834 46.968 103.098 46.232 102.554 45.288C102.026 44.344 101.762 43.264 101.762 42.048C101.762 40.832 102.026 39.752 102.554 38.808C103.098 37.864 103.834 37.128 104.762 36.6C105.69 36.072 106.762 35.808 107.978 35.808C109.498 35.808 110.778 36.208 111.818 37.008C112.858 37.792 113.522 38.88 113.81 40.272H110.57C110.41 39.696 110.09 39.248 109.61 38.928C109.146 38.592 108.594 38.424 107.954 38.424C107.106 38.424 106.386 38.744 105.794 39.384C105.202 40.024 104.906 40.912 104.906 42.048C104.906 43.184 105.202 44.072 105.794 44.712C106.386 45.352 107.106 45.672 107.954 45.672C108.594 45.672 109.146 45.512 109.61 45.192C110.09 44.872 110.41 44.416 110.57 43.824H113.81C113.522 45.168 112.858 46.248 111.818 47.064C110.778 47.88 109.498 48.288 107.978 48.288ZM121.677 48C120.429 48 119.429 47.696 118.677 47.088C117.925 46.48 117.549 45.4 117.549 43.848V38.664H115.509V36.096H117.549L117.909 32.904H120.621V36.096H123.837V38.664H120.621V43.872C120.621 44.448 120.741 44.848 120.98 45.072C121.237 45.28 121.669 45.384 122.277 45.384H123.765V48H121.677ZM128.13 34.248C127.57 34.248 127.106 34.08 126.738 33.744C126.386 33.408 126.21 32.984 126.21 32.472C126.21 31.96 126.386 31.544 126.738 31.224C127.106 30.888 127.57 30.72 128.13 30.72C128.69 30.72 129.146 30.888 129.498 31.224C129.866 31.544 130.05 31.96 130.05 32.472C130.05 32.984 129.866 33.408 129.498 33.744C129.146 34.08 128.69 34.248 128.13 34.248ZM126.594 48V36.096H129.666V48H126.594ZM138.585 48.288C137.433 48.288 136.393 48.024 135.465 47.496C134.553 46.968 133.825 46.24 133.281 45.312C132.753 44.368 132.489 43.28 132.489 42.048C132.489 40.816 132.761 39.736 133.305 38.808C133.849 37.864 134.577 37.128 135.489 36.6C136.417 36.072 137.457 35.808 138.609 35.808C139.745 35.808 140.769 36.072 141.681 36.6C142.609 37.128 143.337 37.864 143.865 38.808C144.409 39.736 144.681 40.816 144.681 42.048C144.681 43.28 144.409 44.368 143.865 45.312C143.337 46.24 142.609 46.968 141.681 47.496C140.753 48.024 139.721 48.288 138.585 48.288ZM138.585 45.624C139.385 45.624 140.081 45.328 140.673 44.736C141.265 44.128 141.561 43.232 141.561 42.048C141.561 40.864 141.265 39.976 140.673 39.384C140.081 38.776 139.393 38.472 138.609 38.472C137.793 38.472 137.089 38.776 136.497 39.384C135.921 39.976 135.633 40.864 135.633 42.048C135.633 43.232 135.921 44.128 136.497 44.736C137.089 45.328 137.785 45.624 138.585 45.624ZM147.427 48V36.096H150.139L150.379 38.112C150.747 37.408 151.275 36.848 151.963 36.432C152.667 36.016 153.491 35.808 154.435 35.808C155.907 35.808 157.051 36.272 157.867 37.2C158.683 38.128 159.091 39.488 159.091 41.28V48H156.019V41.568C156.019 40.544 155.811 39.76 155.395 39.216C154.979 38.672 154.331 38.4 153.451 38.4C152.587 38.4 151.875 38.704 151.315 39.312C150.771 39.92 150.499 40.768 150.499 41.856V48H147.427ZM167.82 48V31.2H174.036C175.38 31.2 176.492 31.424 177.372 31.872C178.252 32.32 178.908 32.936 179.34 33.72C179.772 34.504 179.988 35.384 179.988 36.36C179.988 37.288 179.78 38.144 179.364 38.928C178.948 39.696 178.3 40.32 177.42 40.8C176.54 41.264 175.412 41.496 174.036 41.496H170.892V48H167.82ZM170.892 39H173.844C174.916 39 175.684 38.768 176.148 38.304C176.628 37.824 176.868 37.176 176.868 36.36C176.868 35.528 176.628 34.88 176.148 34.416C175.684 33.936 174.916 33.696 173.844 33.696H170.892V39ZM186.79 48.288C185.302 48.288 184.15 47.824 183.334 46.896C182.534 45.968 182.134 44.608 182.134 42.816V36.096H185.182V42.528C185.182 43.552 185.39 44.336 185.806 44.88C186.222 45.424 186.878 45.696 187.774 45.696C188.622 45.696 189.318 45.392 189.862 44.784C190.422 44.176 190.702 43.328 190.702 42.24V36.096H193.774V48H191.062L190.822 45.984C190.454 46.688 189.918 47.248 189.214 47.664C188.526 48.08 187.718 48.288 186.79 48.288ZM196.927 48V36.096H199.663L199.951 38.328C200.383 37.56 200.967 36.952 201.703 36.504C202.455 36.04 203.335 35.808 204.343 35.808V39.048H203.479C202.807 39.048 202.207 39.152 201.679 39.36C201.151 39.568 200.735 39.928 200.431 40.44C200.143 40.952 199.999 41.664 199.999 42.576V48H196.927ZM212.064 48.288C210.848 48.288 209.776 48.024 208.848 47.496C207.92 46.968 207.184 46.232 206.64 45.288C206.112 44.344 205.848 43.264 205.848 42.048C205.848 40.832 206.112 39.752 206.64 38.808C207.184 37.864 207.92 37.128 208.848 36.6C209.776 36.072 210.848 35.808 212.064 35.808C213.584 35.808 214.864 36.208 215.904 37.008C216.944 37.792 217.608 38.88 217.896 40.272H214.656C214.496 39.696 214.176 39.248 213.696 38.928C213.232 38.592 212.68 38.424 212.04 38.424C211.192 38.424 210.472 38.744 209.88 39.384C209.288 40.024 208.992 40.912 208.992 42.048C208.992 43.184 209.288 44.072 209.88 44.712C210.472 45.352 211.192 45.672 212.04 45.672C212.68 45.672 213.232 45.512 213.696 45.192C214.176 44.872 214.496 44.416 214.656 43.824H217.896C217.608 45.168 216.944 46.248 215.904 47.064C214.864 47.88 213.584 48.288 212.064 48.288ZM220.623 48V30.72H223.695V37.92C224.095 37.264 224.631 36.752 225.303 36.384C225.991 36 226.775 35.808 227.655 35.808C229.127 35.808 230.263 36.272 231.062 37.2C231.878 38.128 232.286 39.488 232.286 41.28V48H229.239V41.568C229.239 40.544 229.031 39.76 228.615 39.216C228.215 38.672 227.575 38.4 226.695 38.4C225.831 38.4 225.111 38.704 224.535 39.312C223.975 39.92 223.695 40.768 223.695 41.856V48H220.623ZM239.328 48.288C238.304 48.288 237.464 48.128 236.808 47.808C236.152 47.472 235.664 47.032 235.344 46.488C235.024 45.944 234.864 45.344 234.864 44.688C234.864 43.584 235.296 42.688 236.16 42C237.024 41.312 238.32 40.968 240.048 40.968H243.072V40.68C243.072 39.864 242.84 39.264 242.376 38.88C241.912 38.496 241.336 38.304 240.648 38.304C240.024 38.304 239.48 38.456 239.016 38.76C238.552 39.048 238.264 39.48 238.152 40.056H235.152C235.232 39.192 235.52 38.44 236.016 37.8C236.528 37.16 237.184 36.672 237.984 36.336C238.784 35.984 239.68 35.808 240.672 35.808C242.368 35.808 243.704 36.232 244.68 37.08C245.656 37.928 246.144 39.128 246.144 40.68V48H243.528L243.24 46.08C242.888 46.72 242.392 47.248 241.752 47.664C241.128 48.08 240.32 48.288 239.328 48.288ZM240.024 45.888C240.904 45.888 241.584 45.6 242.064 45.024C242.56 44.448 242.872 43.736 243 42.888H240.384C239.568 42.888 238.984 43.04 238.632 43.344C238.28 43.632 238.104 43.992 238.104 44.424C238.104 44.888 238.28 45.248 238.632 45.504C238.984 45.76 239.448 45.888 240.024 45.888ZM253.996 48.288C252.94 48.288 252.012 48.12 251.212 47.784C250.412 47.432 249.772 46.952 249.292 46.344C248.812 45.736 248.524 45.032 248.428 44.232H251.524C251.62 44.696 251.876 45.096 252.292 45.432C252.724 45.752 253.276 45.912 253.948 45.912C254.62 45.912 255.108 45.776 255.412 45.504C255.732 45.232 255.892 44.92 255.892 44.568C255.892 44.056 255.668 43.712 255.22 43.536C254.772 43.344 254.148 43.16 253.348 42.984C252.836 42.872 252.316 42.736 251.788 42.576C251.26 42.416 250.772 42.216 250.324 41.976C249.892 41.72 249.54 41.4 249.268 41.016C248.996 40.616 248.86 40.128 248.86 39.552C248.86 38.496 249.276 37.608 250.108 36.888C250.956 36.168 252.14 35.808 253.66 35.808C255.068 35.808 256.188 36.136 257.02 36.792C257.868 37.448 258.372 38.352 258.532 39.504H255.628C255.452 38.624 254.788 38.184 253.636 38.184C253.06 38.184 252.612 38.296 252.292 38.52C251.988 38.744 251.836 39.024 251.836 39.36C251.836 39.712 252.068 39.992 252.532 40.2C252.996 40.408 253.612 40.6 254.38 40.776C255.212 40.968 255.972 41.184 256.66 41.424C257.364 41.648 257.924 41.992 258.34 42.456C258.756 42.904 258.964 43.552 258.964 44.4C258.98 45.136 258.788 45.8 258.388 46.392C257.988 46.984 257.412 47.448 256.66 47.784C255.908 48.12 255.02 48.288 253.996 48.288ZM267.469 48.288C266.269 48.288 265.205 48.032 264.277 47.52C263.349 47.008 262.621 46.288 262.093 45.36C261.565 44.432 261.301 43.36 261.301 42.144C261.301 40.912 261.557 39.816 262.069 38.856C262.597 37.896 263.317 37.152 264.229 36.624C265.157 36.08 266.245 35.808 267.493 35.808C268.661 35.808 269.693 36.064 270.589 36.576C271.485 37.088 272.181 37.792 272.677 38.688C273.189 39.568 273.445 40.552 273.445 41.64C273.445 41.816 273.437 42 273.421 42.192C273.421 42.384 273.413 42.584 273.397 42.792H264.349C264.413 43.72 264.733 44.448 265.309 44.976C265.901 45.504 266.613 45.768 267.445 45.768C268.069 45.768 268.589 45.632 269.005 45.36C269.437 45.072 269.757 44.704 269.965 44.256H273.085C272.861 45.008 272.485 45.696 271.957 46.32C271.445 46.928 270.805 47.408 270.037 47.76C269.285 48.112 268.429 48.288 267.469 48.288ZM267.493 38.304C266.741 38.304 266.077 38.52 265.501 38.952C264.925 39.368 264.557 40.008 264.397 40.872H270.325C270.277 40.088 269.989 39.464 269.461 39C268.933 38.536 268.277 38.304 267.493 38.304ZM281.501 48.288C280.381 48.288 279.381 48.016 278.501 47.472C277.621 46.928 276.925 46.184 276.413 45.24C275.901 44.296 275.645 43.224 275.645 42.024C275.645 40.824 275.901 39.76 276.413 38.832C276.925 37.888 277.621 37.152 278.501 36.624C279.381 36.08 280.381 35.808 281.501 35.808C282.397 35.808 283.181 35.976 283.853 36.312C284.525 36.648 285.069 37.12 285.485 37.728V30.72H288.557V48H285.821L285.485 46.296C285.101 46.824 284.589 47.288 283.949 47.688C283.325 48.088 282.509 48.288 281.501 48.288ZM282.149 45.6C283.141 45.6 283.949 45.272 284.573 44.616C285.213 43.944 285.533 43.088 285.533 42.048C285.533 41.008 285.213 40.16 284.573 39.504C283.949 38.832 283.141 38.496 282.149 38.496C281.173 38.496 280.365 38.824 279.725 39.48C279.085 40.136 278.765 40.984 278.765 42.024C278.765 43.064 279.085 43.92 279.725 44.592C280.365 45.264 281.173 45.6 282.149 45.6Z" fill="#99E515"/>
<path d="M308.76 47V39.22H307.4V37.08H308.76V35.92C308.76 34.72 309.06 33.8667 309.66 33.36C310.273 32.8533 311.1 32.6 312.14 32.6H313.24V34.78H312.54C312.1 34.78 311.787 34.8667 311.6 35.04C311.413 35.2133 311.32 35.5067 311.32 35.92V37.08H313.46V39.22H311.32V47H308.76ZM320.007 47.24C319.047 47.24 318.18 47.02 317.407 46.58C316.647 46.14 316.04 45.5333 315.587 44.76C315.147 43.9733 314.927 43.0667 314.927 42.04C314.927 41.0133 315.154 40.1133 315.607 39.34C316.06 38.5533 316.667 37.94 317.427 37.5C318.2 37.06 319.067 36.84 320.027 36.84C320.974 36.84 321.827 37.06 322.587 37.5C323.36 37.94 323.967 38.5533 324.407 39.34C324.86 40.1133 325.087 41.0133 325.087 42.04C325.087 43.0667 324.86 43.9733 324.407 44.76C323.967 45.5333 323.36 46.14 322.587 46.58C321.814 47.02 320.954 47.24 320.007 47.24ZM320.007 45.02C320.674 45.02 321.254 44.7733 321.747 44.28C322.24 43.7733 322.487 43.0267 322.487 42.04C322.487 41.0533 322.24 40.3133 321.747 39.82C321.254 39.3133 320.68 39.06 320.027 39.06C319.347 39.06 318.76 39.3133 318.267 39.82C317.787 40.3133 317.547 41.0533 317.547 42.04C317.547 43.0267 317.787 43.7733 318.267 44.28C318.76 44.7733 319.34 45.02 320.007 45.02ZM327.526 47V37.08H329.806L330.046 38.94C330.406 38.3 330.892 37.7933 331.506 37.42C332.132 37.0333 332.866 36.84 333.706 36.84V39.54H332.986C332.426 39.54 331.926 39.6267 331.486 39.8C331.046 39.9733 330.699 40.2733 330.446 40.7C330.206 41.1267 330.086 41.72 330.086 42.48V47H327.526ZM346.321 47.24C345.028 47.24 343.921 46.94 343.001 46.34C342.081 45.7267 341.368 44.88 340.861 43.8C340.368 42.7067 340.121 41.44 340.121 40C340.121 38.5733 340.368 37.3133 340.861 36.22C341.368 35.1267 342.081 34.28 343.001 33.68C343.921 33.0667 345.028 32.76 346.321 32.76C347.614 32.76 348.721 33.0667 349.641 33.68C350.561 34.28 351.268 35.1267 351.761 36.22C352.268 37.3133 352.521 38.5733 352.521 40C352.521 41.44 352.268 42.7067 351.761 43.8C351.268 44.88 350.561 45.7267 349.641 46.34C348.721 46.94 347.614 47.24 346.321 47.24ZM346.321 44.94C347.374 44.94 348.234 44.5 348.901 43.62C349.568 42.74 349.901 41.5333 349.901 40C349.901 38.4667 349.568 37.26 348.901 36.38C348.234 35.5 347.374 35.06 346.321 35.06C345.254 35.06 344.388 35.5 343.721 36.38C343.068 37.26 342.741 38.4667 342.741 40C342.741 41.5333 343.068 42.74 343.721 43.62C344.388 44.5 345.254 44.94 346.321 44.94ZM355.17 47.14C354.703 47.14 354.316 46.9933 354.01 46.7C353.716 46.4067 353.57 46.0533 353.57 45.64C353.57 45.2133 353.716 44.8533 354.01 44.56C354.316 44.2667 354.703 44.12 355.17 44.12C355.636 44.12 356.016 44.2667 356.31 44.56C356.616 44.8533 356.77 45.2133 356.77 45.64C356.77 46.0533 356.616 46.4067 356.31 46.7C356.016 46.9933 355.636 47.14 355.17 47.14ZM363.739 47.24C362.685 47.24 361.799 47.0467 361.079 46.66C360.359 46.2733 359.779 45.7533 359.339 45.1C358.899 44.4467 358.579 43.72 358.379 42.92C358.192 42.12 358.099 41.3 358.099 40.46C358.099 38.9 358.319 37.5467 358.759 36.4C359.199 35.24 359.832 34.3467 360.659 33.72C361.485 33.08 362.485 32.76 363.659 32.76C364.619 32.76 365.432 32.9533 366.099 33.34C366.779 33.7133 367.305 34.2067 367.679 34.82C368.052 35.4333 368.272 36.0933 368.339 36.8H365.959C365.839 36.1867 365.579 35.7133 365.179 35.38C364.779 35.0467 364.265 34.88 363.639 34.88C362.745 34.88 362.025 35.2933 361.479 36.12C360.932 36.9333 360.639 38.18 360.599 39.86C360.919 39.3133 361.399 38.86 362.039 38.5C362.679 38.14 363.392 37.96 364.179 37.96C364.952 37.96 365.679 38.1467 366.359 38.52C367.039 38.8933 367.585 39.42 367.999 40.1C368.425 40.78 368.639 41.58 368.639 42.5C368.639 43.34 368.432 44.12 368.019 44.84C367.619 45.56 367.045 46.14 366.299 46.58C365.565 47.02 364.712 47.24 363.739 47.24ZM363.599 45.04C364.345 45.04 364.959 44.8133 365.439 44.36C365.932 43.8933 366.179 43.3067 366.179 42.6C366.179 41.8533 365.932 41.2533 365.439 40.8C364.945 40.3467 364.319 40.12 363.559 40.12C363.065 40.12 362.619 40.2333 362.219 40.46C361.832 40.6733 361.525 40.9667 361.299 41.34C361.072 41.7 360.959 42.1067 360.959 42.56C360.959 43.28 361.205 43.8733 361.699 44.34C362.205 44.8067 362.839 45.04 363.599 45.04ZM376.22 47V33H385.36V35.06H378.78V38.9H384.76V40.9H378.78V44.94H385.36V47H376.22ZM391.193 47V35.06H387.113V33H397.853V35.06H393.753V47H391.193ZM399.899 47V33H402.459V38.82H408.739V33H411.299V47H408.739V40.9H402.459V47H399.899Z" fill="white"/>
<path d="M433.676 45.168C433.107 45.168 432.598 45.0513 432.15 44.818C431.711 44.5847 431.375 44.258 431.142 43.838L431.03 45H429.966V34.92H431.142V39.204C431.366 38.868 431.683 38.5647 432.094 38.294C432.514 38.0233 433.046 37.888 433.69 37.888C434.381 37.888 434.983 38.0467 435.496 38.364C436.009 38.6813 436.406 39.1153 436.686 39.666C436.975 40.2167 437.12 40.842 437.12 41.542C437.12 42.242 436.975 42.8673 436.686 43.418C436.406 43.9593 436.005 44.3887 435.482 44.706C434.969 45.014 434.367 45.168 433.676 45.168ZM433.55 44.146C434.017 44.146 434.427 44.0387 434.782 43.824C435.137 43.6 435.417 43.292 435.622 42.9C435.827 42.508 435.93 42.0507 435.93 41.528C435.93 41.0053 435.827 40.548 435.622 40.156C435.417 39.764 435.137 39.4607 434.782 39.246C434.427 39.022 434.017 38.91 433.55 38.91C433.083 38.91 432.673 39.022 432.318 39.246C431.963 39.4607 431.683 39.764 431.478 40.156C431.273 40.548 431.17 41.0053 431.17 41.528C431.17 42.0507 431.273 42.508 431.478 42.9C431.683 43.292 431.963 43.6 432.318 43.824C432.673 44.0387 433.083 44.146 433.55 44.146ZM439.122 48.08L440.844 44.328H440.438L437.68 38.056H438.954L441.25 43.46L443.686 38.056H444.904L440.354 48.08H439.122ZM454.083 45.168C453.215 45.168 452.464 44.958 451.829 44.538C451.204 44.1087 450.723 43.516 450.387 42.76C450.051 41.9947 449.883 41.108 449.883 40.1C449.883 39.092 450.051 38.21 450.387 37.454C450.723 36.6887 451.204 36.096 451.829 35.676C452.464 35.2467 453.215 35.032 454.083 35.032C454.951 35.032 455.698 35.2467 456.323 35.676C456.948 36.096 457.429 36.6887 457.765 37.454C458.101 38.21 458.269 39.092 458.269 40.1C458.269 41.108 458.101 41.9947 457.765 42.76C457.429 43.516 456.948 44.1087 456.323 44.538C455.698 44.958 454.951 45.168 454.083 45.168ZM454.083 44.132C454.652 44.132 455.161 43.9733 455.609 43.656C456.066 43.3293 456.421 42.8673 456.673 42.27C456.934 41.6633 457.065 40.94 457.065 40.1C457.065 39.26 456.934 38.5413 456.673 37.944C456.421 37.3467 456.066 36.8893 455.609 36.572C455.161 36.2453 454.652 36.082 454.083 36.082C453.504 36.082 452.991 36.2453 452.543 36.572C452.095 36.8893 451.74 37.3467 451.479 37.944C451.218 38.5413 451.087 39.26 451.087 40.1C451.087 40.94 451.218 41.6633 451.479 42.27C451.74 42.8673 452.095 43.3293 452.543 43.656C452.991 43.9733 453.504 44.132 454.083 44.132ZM459.368 45L461.776 41.528L459.368 38.056H460.642L462.588 40.926L464.548 38.056H465.808L463.4 41.528L465.808 45H464.548L462.588 42.13L460.642 45H459.368ZM467.281 45V35.2H473.343V36.166H468.457V39.582H472.923V40.534H468.457V44.034H473.343V45H467.281ZM479.791 45V42.9H474.821V41.99L479.581 35.2H480.953V41.864H482.409V42.9H480.953V45H479.791ZM476.123 41.864H479.847V36.502L476.123 41.864ZM487.331 45.168C486.659 45.168 486.076 45.0467 485.581 44.804C485.087 44.5613 484.69 44.23 484.391 43.81C484.102 43.3807 483.925 42.8953 483.859 42.354H485.007C485.119 42.8953 485.381 43.334 485.791 43.67C486.202 43.9967 486.72 44.16 487.345 44.16C487.812 44.16 488.213 44.0527 488.549 43.838C488.885 43.614 489.142 43.3153 489.319 42.942C489.506 42.5687 489.599 42.1533 489.599 41.696C489.599 40.968 489.394 40.38 488.983 39.932C488.573 39.484 488.041 39.26 487.387 39.26C486.846 39.26 486.384 39.3813 486.001 39.624C485.619 39.8667 485.339 40.184 485.161 40.576H484.041L484.881 35.2H490.019V36.222H485.791L485.217 39.204C485.441 38.9333 485.749 38.7093 486.141 38.532C486.543 38.3547 487 38.266 487.513 38.266C488.157 38.266 488.717 38.4153 489.193 38.714C489.679 39.0127 490.057 39.4187 490.327 39.932C490.598 40.4453 490.733 41.0287 490.733 41.682C490.733 42.3073 490.598 42.886 490.327 43.418C490.066 43.95 489.679 44.3747 489.165 44.692C488.661 45.0093 488.05 45.168 487.331 45.168ZM495.794 45.168C495.131 45.168 494.543 45.0187 494.03 44.72C493.516 44.412 493.11 43.9873 492.812 43.446C492.522 42.9047 492.378 42.2653 492.378 41.528C492.378 40.8 492.522 40.1653 492.812 39.624C493.101 39.0733 493.502 38.6487 494.016 38.35C494.538 38.042 495.14 37.888 495.822 37.888C496.494 37.888 497.072 38.042 497.558 38.35C498.052 38.6487 498.43 39.0453 498.692 39.54C498.953 40.0347 499.084 40.5667 499.084 41.136C499.084 41.2387 499.079 41.3413 499.07 41.444C499.07 41.5467 499.07 41.6633 499.07 41.794H493.54C493.568 42.326 493.689 42.7693 493.904 43.124C494.128 43.4693 494.403 43.7307 494.73 43.908C495.066 44.0853 495.42 44.174 495.794 44.174C496.279 44.174 496.685 44.062 497.012 43.838C497.338 43.614 497.576 43.3107 497.726 42.928H498.888C498.701 43.572 498.342 44.1087 497.81 44.538C497.287 44.958 496.615 45.168 495.794 45.168ZM495.794 38.882C495.234 38.882 494.734 39.0547 494.296 39.4C493.866 39.736 493.619 40.2307 493.554 40.884H497.922C497.894 40.2587 497.679 39.7687 497.278 39.414C496.876 39.0593 496.382 38.882 495.794 38.882ZM502.338 42.018C502.04 42.018 501.76 41.9433 501.498 41.794C501.246 41.6447 501.046 41.444 500.896 41.192C500.747 40.9307 500.672 40.646 500.672 40.338C500.672 40.0207 500.747 39.736 500.896 39.484C501.046 39.2227 501.246 39.0173 501.498 38.868C501.76 38.7187 502.04 38.644 502.338 38.644C502.656 38.644 502.94 38.7187 503.192 38.868C503.454 39.0173 503.659 39.2227 503.808 39.484C503.958 39.736 504.032 40.0207 504.032 40.338C504.032 40.646 503.958 40.9307 503.808 41.192C503.659 41.444 503.454 41.6447 503.192 41.794C502.94 41.9433 502.656 42.018 502.338 42.018ZM507.526 42.018C507.227 42.018 506.947 41.9433 506.686 41.794C506.434 41.6447 506.233 41.444 506.084 41.192C505.935 40.9307 505.86 40.646 505.86 40.338C505.86 40.0207 505.935 39.736 506.084 39.484C506.233 39.2227 506.434 39.0173 506.686 38.868C506.947 38.7187 507.227 38.644 507.526 38.644C507.843 38.644 508.128 38.7187 508.38 38.868C508.641 39.0173 508.847 39.2227 508.996 39.484C509.145 39.736 509.22 40.0207 509.22 40.338C509.22 40.646 509.145 40.9307 508.996 41.192C508.847 41.444 508.641 41.6447 508.38 41.794C508.128 41.9433 507.843 42.018 507.526 42.018ZM514.898 45.168C514.328 45.168 513.82 45.0513 513.372 44.818C512.933 44.5847 512.597 44.258 512.364 43.838L512.252 45H511.188V34.92H512.364V39.204C512.588 38.868 512.905 38.5647 513.316 38.294C513.736 38.0233 514.268 37.888 514.912 37.888C515.602 37.888 516.204 38.0467 516.718 38.364C517.231 38.6813 517.628 39.1153 517.908 39.666C518.197 40.2167 518.342 40.842 518.342 41.542C518.342 42.242 518.197 42.8673 517.908 43.418C517.628 43.9593 517.226 44.3887 516.704 44.706C516.19 45.014 515.588 45.168 514.898 45.168ZM514.772 44.146C515.238 44.146 515.649 44.0387 516.004 43.824C516.358 43.6 516.638 43.292 516.844 42.9C517.049 42.508 517.152 42.0507 517.152 41.528C517.152 41.0053 517.049 40.548 516.844 40.156C516.638 39.764 516.358 39.4607 516.004 39.246C515.649 39.022 515.238 38.91 514.772 38.91C514.305 38.91 513.894 39.022 513.54 39.246C513.185 39.4607 512.905 39.764 512.7 40.156C512.494 40.548 512.392 41.0053 512.392 41.528C512.392 42.0507 512.494 42.508 512.7 42.9C512.905 43.292 513.185 43.6 513.54 43.824C513.894 44.0387 514.305 44.146 514.772 44.146ZM520.219 45V35.2H523.663C524.353 35.2 524.923 35.312 525.371 35.536C525.828 35.7507 526.169 36.0493 526.393 36.432C526.617 36.8053 526.729 37.2253 526.729 37.692C526.729 38.3267 526.556 38.826 526.211 39.19C525.875 39.554 525.469 39.806 524.993 39.946C525.357 40.0113 525.688 40.156 525.987 40.38C526.285 40.604 526.519 40.884 526.687 41.22C526.864 41.556 526.953 41.9247 526.953 42.326C526.953 42.8207 526.831 43.2733 526.589 43.684C526.346 44.0853 525.987 44.4073 525.511 44.65C525.035 44.8833 524.456 45 523.775 45H520.219ZM521.395 39.484H523.579C524.204 39.484 524.685 39.3393 525.021 39.05C525.357 38.7513 525.525 38.3407 525.525 37.818C525.525 37.3233 525.357 36.9267 525.021 36.628C524.694 36.3293 524.199 36.18 523.537 36.18H521.395V39.484ZM521.395 44.02H523.649C524.321 44.02 524.839 43.866 525.203 43.558C525.567 43.2407 525.749 42.802 525.749 42.242C525.749 41.6913 525.557 41.2527 525.175 40.926C524.792 40.59 524.274 40.422 523.621 40.422H521.395V44.02ZM531.862 45.168C531.237 45.168 530.672 45.056 530.168 44.832C529.664 44.5987 529.258 44.2533 528.95 43.796C528.652 43.3387 528.493 42.7693 528.474 42.088H529.664C529.674 42.648 529.87 43.1333 530.252 43.544C530.635 43.9453 531.172 44.146 531.862 44.146C532.553 44.146 533.071 43.9547 533.416 43.572C533.771 43.1893 533.948 42.7273 533.948 42.186C533.948 41.7287 533.836 41.3553 533.612 41.066C533.398 40.7767 533.104 40.562 532.73 40.422C532.366 40.282 531.965 40.212 531.526 40.212H530.798V39.218H531.526C532.161 39.218 532.656 39.0733 533.01 38.784C533.374 38.4947 533.556 38.0887 533.556 37.566C533.556 37.1273 533.412 36.768 533.122 36.488C532.842 36.1987 532.422 36.054 531.862 36.054C531.321 36.054 530.887 36.2173 530.56 36.544C530.234 36.8613 530.052 37.2627 530.014 37.748H528.824C528.852 37.216 528.992 36.7447 529.244 36.334C529.506 35.9233 529.86 35.606 530.308 35.382C530.756 35.1487 531.274 35.032 531.862 35.032C532.497 35.032 533.024 35.144 533.444 35.368C533.874 35.592 534.196 35.8907 534.41 36.264C534.634 36.6373 534.746 37.048 534.746 37.496C534.746 37.9907 534.611 38.4433 534.34 38.854C534.07 39.2553 533.664 39.526 533.122 39.666C533.701 39.7873 534.182 40.0627 534.564 40.492C534.947 40.9213 535.138 41.486 535.138 42.186C535.138 42.7273 535.012 43.2267 534.76 43.684C534.518 44.132 534.154 44.4913 533.668 44.762C533.183 45.0327 532.581 45.168 531.862 45.168ZM540.543 45.168C539.871 45.168 539.288 45.0467 538.793 44.804C538.298 44.5613 537.902 44.23 537.603 43.81C537.314 43.3807 537.136 42.8953 537.071 42.354H538.219C538.331 42.8953 538.592 43.334 539.003 43.67C539.414 43.9967 539.932 44.16 540.557 44.16C541.024 44.16 541.425 44.0527 541.761 43.838C542.097 43.614 542.354 43.3153 542.531 42.942C542.718 42.5687 542.811 42.1533 542.811 41.696C542.811 40.968 542.606 40.38 542.195 39.932C541.784 39.484 541.252 39.26 540.599 39.26C540.058 39.26 539.596 39.3813 539.213 39.624C538.83 39.8667 538.55 40.184 538.373 40.576H537.253L538.093 35.2H543.231V36.222H539.003L538.429 39.204C538.653 38.9333 538.961 38.7093 539.353 38.532C539.754 38.3547 540.212 38.266 540.725 38.266C541.369 38.266 541.929 38.4153 542.405 38.714C542.89 39.0127 543.268 39.4187 543.539 39.932C543.81 40.4453 543.945 41.0287 543.945 41.682C543.945 42.3073 543.81 42.886 543.539 43.418C543.278 43.95 542.89 44.3747 542.377 44.692C541.873 45.0093 541.262 45.168 540.543 45.168Z" fill="white"/>
<path d="M917.882 45V44.174C918.545 43.6513 919.17 43.124 919.758 42.592C920.355 42.0507 920.883 41.5187 921.34 40.996C921.807 40.4733 922.171 39.96 922.432 39.456C922.703 38.952 922.838 38.4667 922.838 38C922.838 37.6547 922.777 37.3327 922.656 37.034C922.544 36.7353 922.357 36.4973 922.096 36.32C921.835 36.1333 921.48 36.04 921.032 36.04C920.603 36.04 920.243 36.138 919.954 36.334C919.665 36.5207 919.445 36.7727 919.296 37.09C919.156 37.4073 919.086 37.748 919.086 38.112H917.952C917.952 37.468 918.087 36.9173 918.358 36.46C918.629 35.9933 918.997 35.6387 919.464 35.396C919.931 35.1533 920.458 35.032 921.046 35.032C921.914 35.032 922.623 35.2793 923.174 35.774C923.734 36.2593 924.014 36.9873 924.014 37.958C924.014 38.5367 923.869 39.1107 923.58 39.68C923.291 40.24 922.922 40.786 922.474 41.318C922.026 41.8407 921.545 42.3307 921.032 42.788C920.528 43.2453 920.057 43.656 919.618 44.02H924.35V45H917.882ZM930.023 45V38.056H931.087L931.171 39.064C931.395 38.6907 931.693 38.4013 932.067 38.196C932.44 37.9907 932.86 37.888 933.327 37.888C933.877 37.888 934.349 38 934.741 38.224C935.142 38.448 935.45 38.7887 935.665 39.246C935.907 38.826 936.239 38.4947 936.659 38.252C937.088 38.0093 937.55 37.888 938.045 37.888C938.875 37.888 939.538 38.14 940.033 38.644C940.527 39.1387 940.775 39.904 940.775 40.94V45H939.613V41.066C939.613 40.3473 939.468 39.806 939.179 39.442C938.889 39.078 938.474 38.896 937.933 38.896C937.373 38.896 936.906 39.1153 936.533 39.554C936.169 39.9833 935.987 40.5993 935.987 41.402V45H934.811V41.066C934.811 40.3473 934.666 39.806 934.377 39.442C934.087 39.078 933.672 38.896 933.131 38.896C932.58 38.896 932.118 39.1153 931.745 39.554C931.381 39.9833 931.199 40.5993 931.199 41.402V45H930.023ZM945.88 45.168C945.227 45.168 944.639 45.0187 944.116 44.72C943.594 44.4213 943.178 44.0013 942.87 43.46C942.572 42.9093 942.422 42.2653 942.422 41.528C942.422 40.7907 942.576 40.1513 942.884 39.61C943.192 39.0593 943.608 38.6347 944.13 38.336C944.662 38.0373 945.255 37.888 945.908 37.888C946.562 37.888 947.15 38.0373 947.672 38.336C948.195 38.6347 948.606 39.0593 948.904 39.61C949.212 40.1513 949.366 40.7907 949.366 41.528C949.366 42.2653 949.212 42.9093 948.904 43.46C948.596 44.0013 948.176 44.4213 947.644 44.72C947.122 45.0187 946.534 45.168 945.88 45.168ZM945.88 44.16C946.282 44.16 946.655 44.062 947 43.866C947.346 43.67 947.626 43.376 947.84 42.984C948.055 42.592 948.162 42.1067 948.162 41.528C948.162 40.9493 948.055 40.464 947.84 40.072C947.635 39.68 947.36 39.386 947.014 39.19C946.669 38.994 946.3 38.896 945.908 38.896C945.507 38.896 945.134 38.994 944.788 39.19C944.443 39.386 944.163 39.68 943.948 40.072C943.734 40.464 943.626 40.9493 943.626 41.528C943.626 42.1067 943.734 42.592 943.948 42.984C944.163 43.376 944.438 43.67 944.774 43.866C945.12 44.062 945.488 44.16 945.88 44.16ZM951.171 45V38.056H952.235L952.305 39.302C952.529 38.8633 952.851 38.518 953.271 38.266C953.691 38.014 954.167 37.888 954.699 37.888C955.521 37.888 956.174 38.14 956.659 38.644C957.154 39.1387 957.401 39.904 957.401 40.94V45H956.225V41.066C956.225 39.6193 955.628 38.896 954.433 38.896C953.836 38.896 953.337 39.1153 952.935 39.554C952.543 39.9833 952.347 40.5993 952.347 41.402V45H951.171ZM962.097 45C961.462 45 960.963 44.846 960.599 44.538C960.235 44.23 960.053 43.6747 960.053 42.872V39.05H958.849V38.056H960.053L960.207 36.39H961.229V38.056H963.273V39.05H961.229V42.872C961.229 43.3107 961.318 43.6093 961.495 43.768C961.672 43.9173 961.985 43.992 962.433 43.992H963.161V45H962.097ZM964.937 45V34.92H966.113V39.246C966.347 38.8167 966.678 38.4853 967.107 38.252C967.537 38.0093 968.003 37.888 968.507 37.888C969.31 37.888 969.954 38.14 970.439 38.644C970.925 39.1387 971.167 39.904 971.167 40.94V45H970.005V41.066C970.005 39.6193 969.422 38.896 968.255 38.896C967.649 38.896 967.14 39.1153 966.729 39.554C966.319 39.9833 966.113 40.5993 966.113 41.402V45H964.937ZM975.779 45.168C974.948 45.168 974.258 44.958 973.707 44.538C973.156 44.118 972.834 43.5487 972.741 42.83H973.945C974.02 43.194 974.211 43.5113 974.519 43.782C974.836 44.0433 975.261 44.174 975.793 44.174C976.288 44.174 976.652 44.0713 976.885 43.866C977.118 43.6513 977.235 43.3993 977.235 43.11C977.235 42.69 977.081 42.41 976.773 42.27C976.474 42.13 976.05 42.004 975.499 41.892C975.126 41.8173 974.752 41.71 974.379 41.57C974.006 41.43 973.693 41.234 973.441 40.982C973.189 40.7207 973.063 40.38 973.063 39.96C973.063 39.3533 973.287 38.8587 973.735 38.476C974.192 38.084 974.808 37.888 975.583 37.888C976.32 37.888 976.922 38.0747 977.389 38.448C977.865 38.812 978.14 39.3347 978.215 40.016H977.053C977.006 39.6613 976.852 39.386 976.591 39.19C976.339 38.9847 975.998 38.882 975.569 38.882C975.149 38.882 974.822 38.9707 974.589 39.148C974.365 39.3253 974.253 39.5587 974.253 39.848C974.253 40.128 974.398 40.3473 974.687 40.506C974.986 40.6647 975.387 40.8 975.891 40.912C976.32 41.0053 976.726 41.122 977.109 41.262C977.501 41.3927 977.818 41.5933 978.061 41.864C978.313 42.1253 978.439 42.508 978.439 43.012C978.448 43.6373 978.21 44.1553 977.725 44.566C977.249 44.9673 976.6 45.168 975.779 45.168ZM986.474 45.168C985.895 45.168 985.415 45.07 985.032 44.874C984.649 44.678 984.365 44.4167 984.178 44.09C983.991 43.7633 983.898 43.4087 983.898 43.026C983.898 42.3167 984.169 41.7707 984.71 41.388C985.251 41.0053 985.989 40.814 986.922 40.814H988.798V40.73C988.798 40.1233 988.639 39.666 988.322 39.358C988.005 39.0407 987.58 38.882 987.048 38.882C986.591 38.882 986.194 38.9987 985.858 39.232C985.531 39.456 985.326 39.7873 985.242 40.226H984.038C984.085 39.722 984.253 39.2973 984.542 38.952C984.841 38.6067 985.209 38.3453 985.648 38.168C986.087 37.9813 986.553 37.888 987.048 37.888C988.019 37.888 988.747 38.1493 989.232 38.672C989.727 39.1853 989.974 39.8713 989.974 40.73V45H988.924L988.854 43.754C988.658 44.146 988.369 44.482 987.986 44.762C987.613 45.0327 987.109 45.168 986.474 45.168ZM986.656 44.174C987.104 44.174 987.487 44.0573 987.804 43.824C988.131 43.5907 988.378 43.2873 988.546 42.914C988.714 42.5407 988.798 42.1487 988.798 41.738V41.724H987.02C986.329 41.724 985.839 41.8453 985.55 42.088C985.27 42.3213 985.13 42.6153 985.13 42.97C985.13 43.334 985.261 43.628 985.522 43.852C985.793 44.0667 986.171 44.174 986.656 44.174ZM994.652 42.816C994.26 42.816 993.901 42.7647 993.574 42.662L992.874 43.32C992.977 43.3947 993.103 43.46 993.252 43.516C993.411 43.5627 993.635 43.6093 993.924 43.656C994.214 43.6933 994.62 43.7353 995.142 43.782C996.076 43.8473 996.743 44.062 997.144 44.426C997.546 44.79 997.746 45.266 997.746 45.854C997.746 46.2553 997.634 46.638 997.41 47.002C997.196 47.366 996.86 47.6647 996.402 47.898C995.954 48.1313 995.376 48.248 994.666 48.248C994.041 48.248 993.486 48.164 993 47.996C992.515 47.8373 992.137 47.59 991.866 47.254C991.596 46.9273 991.46 46.512 991.46 46.008C991.46 45.7467 991.53 45.462 991.67 45.154C991.81 44.8553 992.072 44.5707 992.454 44.3C992.249 44.216 992.072 44.1273 991.922 44.034C991.782 43.9313 991.652 43.8193 991.53 43.698V43.376L992.72 42.2C992.17 41.7333 991.894 41.1173 991.894 40.352C991.894 39.8947 992.002 39.4793 992.216 39.106C992.431 38.7327 992.744 38.4387 993.154 38.224C993.565 38 994.064 37.888 994.652 37.888C995.054 37.888 995.418 37.944 995.744 38.056H998.306V38.938L997.004 38.994C997.275 39.386 997.41 39.8387 997.41 40.352C997.41 40.8093 997.298 41.2247 997.074 41.598C996.86 41.9713 996.547 42.27 996.136 42.494C995.735 42.7087 995.24 42.816 994.652 42.816ZM994.652 41.85C995.147 41.85 995.539 41.724 995.828 41.472C996.127 41.2107 996.276 40.8373 996.276 40.352C996.276 39.876 996.127 39.512 995.828 39.26C995.539 38.9987 995.147 38.868 994.652 38.868C994.148 38.868 993.747 38.9987 993.448 39.26C993.159 39.512 993.014 39.876 993.014 40.352C993.014 40.8373 993.159 41.2107 993.448 41.472C993.747 41.724 994.148 41.85 994.652 41.85ZM992.608 45.896C992.608 46.3627 992.804 46.708 993.196 46.932C993.588 47.1653 994.078 47.282 994.666 47.282C995.245 47.282 995.707 47.156 996.052 46.904C996.407 46.652 996.584 46.316 996.584 45.896C996.584 45.5973 996.463 45.336 996.22 45.112C995.978 44.8973 995.53 44.7713 994.876 44.734C994.363 44.6967 993.92 44.65 993.546 44.594C993.164 44.7993 992.912 45.0187 992.79 45.252C992.669 45.4947 992.608 45.7093 992.608 45.896ZM1002.69 45.168C1002.04 45.168 1001.45 45.0187 1000.93 44.72C1000.41 44.4213 999.991 44.0013 999.683 43.46C999.385 42.9093 999.235 42.2653 999.235 41.528C999.235 40.7907 999.389 40.1513 999.697 39.61C1000.01 39.0593 1000.42 38.6347 1000.94 38.336C1001.48 38.0373 1002.07 37.888 1002.72 37.888C1003.37 37.888 1003.96 38.0373 1004.49 38.336C1005.01 38.6347 1005.42 39.0593 1005.72 39.61C1006.03 40.1513 1006.18 40.7907 1006.18 41.528C1006.18 42.2653 1006.03 42.9093 1005.72 43.46C1005.41 44.0013 1004.99 44.4213 1004.46 44.72C1003.93 45.0187 1003.35 45.168 1002.69 45.168ZM1002.69 44.16C1003.09 44.16 1003.47 44.062 1003.81 43.866C1004.16 43.67 1004.44 43.376 1004.65 42.984C1004.87 42.592 1004.98 42.1067 1004.98 41.528C1004.98 40.9493 1004.87 40.464 1004.65 40.072C1004.45 39.68 1004.17 39.386 1003.83 39.19C1003.48 38.994 1003.11 38.896 1002.72 38.896C1002.32 38.896 1001.95 38.994 1001.6 39.19C1001.26 39.386 1000.98 39.68 1000.76 40.072C1000.55 40.464 1000.44 40.9493 1000.44 41.528C1000.44 42.1067 1000.55 42.592 1000.76 42.984C1000.98 43.376 1001.25 43.67 1001.59 43.866C1001.93 44.062 1002.3 44.16 1002.69 44.16Z" fill="white"/>
<g clip-path="url(#clip0_48_1215)">
<path d="M1026.23 45V36.642H1023.38V35.2H1030.9V36.642H1028.03V45H1026.23ZM1031.96 45V38.056H1033.55L1033.72 39.358C1033.97 38.91 1034.31 38.5553 1034.74 38.294C1035.18 38.0233 1035.7 37.888 1036.28 37.888V39.778H1035.78C1035.39 39.778 1035.04 39.8387 1034.73 39.96C1034.42 40.0813 1034.18 40.2913 1034 40.59C1033.83 40.8887 1033.75 41.304 1033.75 41.836V45H1031.96ZM1040.36 45.168C1039.77 45.168 1039.28 45.0747 1038.89 44.888C1038.51 44.692 1038.23 44.4353 1038.04 44.118C1037.85 43.8007 1037.76 43.4507 1037.76 43.068C1037.76 42.424 1038.01 41.9013 1038.51 41.5C1039.02 41.0987 1039.77 40.898 1040.78 40.898H1042.55V40.73C1042.55 40.254 1042.41 39.904 1042.14 39.68C1041.87 39.456 1041.53 39.344 1041.13 39.344C1040.77 39.344 1040.45 39.4327 1040.18 39.61C1039.91 39.778 1039.74 40.03 1039.68 40.366H1037.93C1037.97 39.862 1038.14 39.4233 1038.43 39.05C1038.73 38.6767 1039.11 38.392 1039.58 38.196C1040.05 37.9907 1040.57 37.888 1041.15 37.888C1042.14 37.888 1042.92 38.1353 1043.48 38.63C1044.05 39.1247 1044.34 39.8247 1044.34 40.73V45H1042.81L1042.64 43.88C1042.44 44.2533 1042.15 44.5613 1041.78 44.804C1041.41 45.0467 1040.94 45.168 1040.36 45.168ZM1040.77 43.768C1041.28 43.768 1041.68 43.6 1041.96 43.264C1042.25 42.928 1042.43 42.5127 1042.5 42.018H1040.98C1040.5 42.018 1040.16 42.1067 1039.96 42.284C1039.75 42.452 1039.65 42.662 1039.65 42.914C1039.65 43.1847 1039.75 43.3947 1039.96 43.544C1040.16 43.6933 1040.43 43.768 1040.77 43.768ZM1046.51 45V38.056H1048.09L1048.23 39.232C1048.45 38.8213 1048.75 38.4947 1049.15 38.252C1049.57 38.0093 1050.05 37.888 1050.6 37.888C1051.46 37.888 1052.12 38.1587 1052.6 38.7C1053.07 39.2413 1053.31 40.0347 1053.31 41.08V45H1051.52V41.248C1051.52 40.6507 1051.4 40.1933 1051.16 39.876C1050.91 39.5587 1050.54 39.4 1050.02 39.4C1049.52 39.4 1049.1 39.5773 1048.78 39.932C1048.46 40.2867 1048.3 40.7813 1048.3 41.416V45H1046.51ZM1058.36 45.168C1057.74 45.168 1057.2 45.07 1056.73 44.874C1056.27 44.6687 1055.89 44.3887 1055.61 44.034C1055.33 43.6793 1055.16 43.2687 1055.11 42.802H1056.91C1056.97 43.0727 1057.12 43.306 1057.36 43.502C1057.61 43.6887 1057.94 43.782 1058.33 43.782C1058.72 43.782 1059 43.7027 1059.18 43.544C1059.37 43.3853 1059.46 43.2033 1059.46 42.998C1059.46 42.6993 1059.33 42.4987 1059.07 42.396C1058.81 42.284 1058.44 42.1767 1057.98 42.074C1057.68 42.0087 1057.38 41.9293 1057.07 41.836C1056.76 41.7427 1056.48 41.626 1056.21 41.486C1055.96 41.3367 1055.76 41.15 1055.6 40.926C1055.44 40.6927 1055.36 40.408 1055.36 40.072C1055.36 39.456 1055.6 38.938 1056.09 38.518C1056.58 38.098 1057.27 37.888 1058.16 37.888C1058.98 37.888 1059.63 38.0793 1060.12 38.462C1060.61 38.8447 1060.91 39.372 1061 40.044H1059.31C1059.21 39.5307 1058.82 39.274 1058.15 39.274C1057.81 39.274 1057.55 39.3393 1057.36 39.47C1057.18 39.6007 1057.1 39.764 1057.1 39.96C1057.1 40.1653 1057.23 40.3287 1057.5 40.45C1057.77 40.5713 1058.13 40.6833 1058.58 40.786C1059.07 40.898 1059.51 41.024 1059.91 41.164C1060.32 41.2947 1060.65 41.4953 1060.89 41.766C1061.13 42.0273 1061.25 42.4053 1061.25 42.9C1061.26 43.3293 1061.15 43.7167 1060.92 44.062C1060.68 44.4073 1060.35 44.678 1059.91 44.874C1059.47 45.07 1058.95 45.168 1058.36 45.168ZM1065.7 45.168C1065.1 45.168 1064.61 45.0747 1064.23 44.888C1063.84 44.692 1063.56 44.4353 1063.37 44.118C1063.19 43.8007 1063.09 43.4507 1063.09 43.068C1063.09 42.424 1063.34 41.9013 1063.85 41.5C1064.35 41.0987 1065.11 40.898 1066.12 40.898H1067.88V40.73C1067.88 40.254 1067.74 39.904 1067.47 39.68C1067.2 39.456 1066.87 39.344 1066.47 39.344C1066.1 39.344 1065.78 39.4327 1065.51 39.61C1065.24 39.778 1065.08 40.03 1065.01 40.366H1063.26C1063.31 39.862 1063.47 39.4233 1063.76 39.05C1064.06 38.6767 1064.45 38.392 1064.91 38.196C1065.38 37.9907 1065.9 37.888 1066.48 37.888C1067.47 37.888 1068.25 38.1353 1068.82 38.63C1069.39 39.1247 1069.67 39.8247 1069.67 40.73V45H1068.15L1067.98 43.88C1067.77 44.2533 1067.48 44.5613 1067.11 44.804C1066.75 45.0467 1066.27 45.168 1065.7 45.168ZM1066.1 43.768C1066.62 43.768 1067.01 43.6 1067.29 43.264C1067.58 42.928 1067.76 42.5127 1067.84 42.018H1066.31C1065.84 42.018 1065.5 42.1067 1065.29 42.284C1065.08 42.452 1064.98 42.662 1064.98 42.914C1064.98 43.1847 1065.08 43.3947 1065.29 43.544C1065.5 43.6933 1065.77 43.768 1066.1 43.768ZM1075.24 45.168C1074.53 45.168 1073.91 45.014 1073.37 44.706C1072.83 44.398 1072.4 43.9687 1072.08 43.418C1071.77 42.8673 1071.62 42.2373 1071.62 41.528C1071.62 40.8187 1071.77 40.1887 1072.08 39.638C1072.4 39.0873 1072.83 38.658 1073.37 38.35C1073.91 38.042 1074.53 37.888 1075.24 37.888C1076.13 37.888 1076.88 38.1213 1077.48 38.588C1078.09 39.0453 1078.48 39.68 1078.65 40.492H1076.76C1076.66 40.156 1076.48 39.8947 1076.2 39.708C1075.93 39.512 1075.6 39.414 1075.23 39.414C1074.74 39.414 1074.32 39.6007 1073.97 39.974C1073.62 40.3473 1073.45 40.8653 1073.45 41.528C1073.45 42.1907 1073.62 42.7087 1073.97 43.082C1074.32 43.4553 1074.74 43.642 1075.23 43.642C1075.6 43.642 1075.93 43.5487 1076.2 43.362C1076.48 43.1753 1076.66 42.9093 1076.76 42.564H1078.65C1078.48 43.348 1078.09 43.978 1077.48 44.454C1076.88 44.93 1076.13 45.168 1075.24 45.168ZM1083.69 45C1082.97 45 1082.38 44.8227 1081.94 44.468C1081.51 44.1133 1081.29 43.4833 1081.29 42.578V39.554H1080.1V38.056H1081.29L1081.5 36.194H1083.08V38.056H1084.95V39.554H1083.08V42.592C1083.08 42.928 1083.15 43.1613 1083.29 43.292C1083.44 43.4133 1083.69 43.474 1084.04 43.474H1084.91V45H1083.69ZM1087.92 36.978C1087.59 36.978 1087.32 36.88 1087.11 36.684C1086.9 36.488 1086.8 36.2407 1086.8 35.942C1086.8 35.6433 1086.9 35.4007 1087.11 35.214C1087.32 35.018 1087.59 34.92 1087.92 34.92C1088.25 34.92 1088.51 35.018 1088.72 35.214C1088.93 35.4007 1089.04 35.6433 1089.04 35.942C1089.04 36.2407 1088.93 36.488 1088.72 36.684C1088.51 36.88 1088.25 36.978 1087.92 36.978ZM1087.02 45V38.056H1088.82V45H1087.02ZM1094.48 45.168C1093.81 45.168 1093.2 45.014 1092.66 44.706C1092.13 44.398 1091.7 43.9733 1091.38 43.432C1091.08 42.8813 1090.92 42.2467 1090.92 41.528C1090.92 40.8093 1091.08 40.1793 1091.4 39.638C1091.72 39.0873 1092.14 38.658 1092.67 38.35C1093.21 38.042 1093.82 37.888 1094.49 37.888C1095.15 37.888 1095.75 38.042 1096.28 38.35C1096.83 38.658 1097.25 39.0873 1097.56 39.638C1097.88 40.1793 1098.03 40.8093 1098.03 41.528C1098.03 42.2467 1097.88 42.8813 1097.56 43.432C1097.25 43.9733 1096.83 44.398 1096.28 44.706C1095.74 45.014 1095.14 45.168 1094.48 45.168ZM1094.48 43.614C1094.94 43.614 1095.35 43.4413 1095.7 43.096C1096.04 42.7413 1096.21 42.2187 1096.21 41.528C1096.21 40.8373 1096.04 40.3193 1095.7 39.974C1095.35 39.6193 1094.95 39.442 1094.49 39.442C1094.02 39.442 1093.61 39.6193 1093.26 39.974C1092.92 40.3193 1092.76 40.8373 1092.76 41.528C1092.76 42.2187 1092.92 42.7413 1093.26 43.096C1093.61 43.4413 1094.01 43.614 1094.48 43.614ZM1100.1 45V38.056H1101.68L1101.82 39.232C1102.03 38.8213 1102.34 38.4947 1102.74 38.252C1103.15 38.0093 1103.63 37.888 1104.18 37.888C1105.04 37.888 1105.71 38.1587 1106.19 38.7C1106.66 39.2413 1106.9 40.0347 1106.9 41.08V45H1105.11V41.248C1105.11 40.6507 1104.99 40.1933 1104.74 39.876C1104.5 39.5587 1104.12 39.4 1103.61 39.4C1103.11 39.4 1102.69 39.5773 1102.36 39.932C1102.05 40.2867 1101.89 40.7813 1101.89 41.416V45H1100.1Z" fill="white"/>
<path d="M1023 46.75H1031.73V47.45H1023V46.75ZM1031.05 46.75H1079.79V47.45H1031.05V46.75ZM1079.69 46.75H1086.04V47.45H1079.69V46.75ZM1086.04 46.75H1090.24V47.45H1086.04V46.75ZM1090.24 46.75H1107.7V47.45H1090.24V46.75Z" fill="white"/>
<path d="M1124.8 44.8V40C1124.8 39.6686 1125.07 39.4 1125.4 39.4C1125.73 39.4 1126 39.6686 1126 40V44.8C1126 45.4627 1125.46 46 1124.8 46H1115.2C1114.54 46 1114 45.4627 1114 44.8V35.2C1114 34.5373 1114.54 34 1115.2 34H1120C1120.33 34 1120.6 34.2686 1120.6 34.6C1120.6 34.9314 1120.33 35.2 1120 35.2H1115.2V44.8H1124.8Z" fill="white"/>
<path fill-rule="evenodd" clip-rule="evenodd" d="M1123.89 35.2355H1122.29C1121.95 35.2355 1121.68 34.959 1121.68 34.6178C1121.68 34.2766 1121.95 34 1122.29 34H1125.38C1125.55 34 1125.71 34.0691 1125.82 34.1809C1125.93 34.2927 1126 34.4472 1126 34.6178V37.7066C1126 38.0478 1125.72 38.3244 1125.38 38.3244C1125.04 38.3244 1124.76 38.0478 1124.76 37.7066V36.1092L1119.05 41.8191C1118.81 42.0603 1118.42 42.0603 1118.18 41.8191C1117.94 41.5778 1117.94 41.1867 1118.18 40.9454L1123.89 35.2355Z" fill="white"/>
</g>
<defs>
<linearGradient id="paint0_linear_48_1215" x1="0" y1="40" x2="1152" y2="40" gradientUnits="userSpaceOnUse">
<stop stop-color="white" stop-opacity="0.16"/>
<stop offset="1" stop-color="white" stop-opacity="0.12"/>
</linearGradient>
<clipPath id="clip0_48_1215">
<rect x="1023" y="27" width="105" height="26" rx="4" fill="white"/>
</clipPath>
</defs>
</svg>
