<svg width="24" height="25" viewBox="0 0 24 25" fill="none" xmlns="http://www.w3.org/2000/svg">
<g id="Token 24px">
<g id="Icon">
<path fill-rule="evenodd" clip-rule="evenodd" d="M14.998 5.4187C11.133 5.4187 7.99805 8.5537 7.99805 12.4187C7.99805 16.2847 11.133 19.4187 14.998 19.4187C18.864 19.4187 21.998 16.2847 21.998 12.4187C21.998 8.5537 18.864 5.4187 14.998 5.4187ZM14.998 7.4187C17.756 7.4187 19.998 9.6617 19.998 12.4187C19.998 15.1767 17.756 17.4187 14.998 17.4187C12.241 17.4187 9.99805 15.1767 9.99805 12.4187C9.99805 9.6617 12.241 7.4187 14.998 7.4187Z" fill="#99E515"/>
<path d="M6.80435 5.77742C3.9592 6.71391 2 9.37457 2 12.4153C2 15.456 3.9592 18.1167 6.80435 19.0532C7.32895 19.2258 7.8942 18.9405 8.06687 18.4159C8.23954 17.8913 7.95425 17.3261 7.42965 17.1534C5.39855 16.4849 4 14.5856 4 12.4153C4 10.245 5.39855 8.3457 7.42965 7.67716C7.95425 7.50449 8.23954 6.93924 8.06687 6.41464C7.8942 5.89004 7.32895 5.60475 6.80435 5.77742Z" fill="#99E515"/>
</g>
</g>
</svg>
