<svg width="24" height="24" viewBox="0 0 24 24" fill="none" xmlns="http://www.w3.org/2000/svg">
<path fill-rule="evenodd" clip-rule="evenodd" d="M18 18.9966C18 19.5486 17.552 19.9966 17 19.9966H7C6.448 19.9966 6 19.5486 6 18.9966V11.9966C6 11.4446 6.448 10.9966 7 10.9966H17C17.552 10.9966 18 11.4446 18 11.9966V18.9966ZM18.004 9.18263V8.00063C18.004 4.69163 15.312 1.99963 12.004 1.99963C9.587 1.99963 7.418 3.43863 6.477 5.66463C6.262 6.17363 6.499 6.76063 7.008 6.97563C7.516 7.18963 8.104 6.95163 8.318 6.44363C8.946 4.95963 10.393 3.99963 12.004 3.99963C14.21 3.99963 16.004 5.79463 16.004 8.00063V8.99663H7C5.346 8.99663 4 10.3426 4 11.9966V18.9966C4 20.6506 5.346 21.9966 7 21.9966H17C18.654 21.9966 20 20.6506 20 18.9966V11.9966C20 10.6956 19.163 9.59763 18.004 9.18263Z" fill="#99E515"/>
<path fill-rule="evenodd" clip-rule="evenodd" d="M13.5 14.4937C13.5 13.6647 12.828 12.9937 12 12.9937C11.172 12.9937 10.5 13.6647 10.5 14.4937C10.5 14.9367 10.696 15.3317 11.002 15.6057V16.9897C11.002 17.5437 11.451 17.9927 12.006 17.9927C12.56 17.9927 13.009 17.5437 13.009 16.9897V15.5977C13.309 15.3227 13.5 14.9317 13.5 14.4937Z" fill="#99E515"/>
</svg>
